<svg width="20" height="17" viewBox="0 0 20 17" fill="none" xmlns="http://www.w3.org/2000/svg">
<path fill-rule="evenodd" clip-rule="evenodd" d="M0.199219 1.5001C0.199219 1.12879 0.346718 0.772699 0.609269 0.510148C0.87182 0.247598 1.22792 0.100098 1.59922 0.100098H18.3992C18.7705 0.100098 19.1266 0.247598 19.3892 0.510148C19.6517 0.772699 19.7992 1.12879 19.7992 1.5001C19.7992 1.8714 19.6517 2.2275 19.3892 2.49005C19.1266 2.7526 18.7705 2.9001 18.3992 2.9001H1.59922C1.22792 2.9001 0.87182 2.7526 0.609269 2.49005C0.346718 2.2275 0.199219 1.8714 0.199219 1.5001ZM0.199219 8.5001C0.199219 8.12879 0.346718 7.7727 0.609269 7.51015C0.87182 7.2476 1.22792 7.1001 1.59922 7.1001H9.99922C10.3705 7.1001 10.7266 7.2476 10.9892 7.51015C11.2517 7.7727 11.3992 8.12879 11.3992 8.5001C11.3992 8.8714 11.2517 9.2275 10.9892 9.49005C10.7266 9.7526 10.3705 9.9001 9.99922 9.9001H1.59922C1.22792 9.9001 0.87182 9.7526 0.609269 9.49005C0.346718 9.2275 0.199219 8.8714 0.199219 8.5001ZM0.199219 15.5001C0.199219 15.1288 0.346718 14.7727 0.609269 14.5101C0.87182 14.2476 1.22792 14.1001 1.59922 14.1001H18.3992C18.7705 14.1001 19.1266 14.2476 19.3892 14.5101C19.6517 14.7727 19.7992 15.1288 19.7992 15.5001C19.7992 15.8714 19.6517 16.2275 19.3892 16.49C19.1266 16.7526 18.7705 16.9001 18.3992 16.9001H1.59922C1.22792 16.9001 0.87182 16.7526 0.609269 16.49C0.346718 16.2275 0.199219 15.8714 0.199219 15.5001Z" fill="#111827"/>
</svg>
